<?xml version="1.0" encoding="UTF-8" standalone="no"?>
<svg
   xmlns:dc="http://purl.org/dc/elements/1.1/"
   xmlns:cc="http://creativecommons.org/ns#"
   xmlns:rdf="http://www.w3.org/1999/02/22-rdf-syntax-ns#"
   xmlns:svg="http://www.w3.org/2000/svg"
   xmlns="http://www.w3.org/2000/svg"
   xmlns:xlink="http://www.w3.org/1999/xlink"
   xmlns:sodipodi="http://sodipodi.sourceforge.net/DTD/sodipodi-0.dtd"
   xmlns:inkscape="http://www.inkscape.org/namespaces/inkscape"
   version="1.0"
   id="Ebene_1"
   x="0px"
   y="0px"
   viewBox="0 0 73.6 73.6"
   style="enable-background:new 0 0 73.6 73.6;"
   xml:space="preserve"
   sodipodi:docname="2024-02-27 Logo Kategory (korrigiert).svg"
   inkscape:version="1.0.2-2 (e86c870879, 2021-01-15)"><metadata
   id="metadata64"><rdf:RDF><cc:Work
       rdf:about=""><dc:format>image/svg+xml</dc:format><dc:type
         rdf:resource="http://purl.org/dc/dcmitype/StillImage" /></cc:Work></rdf:RDF></metadata><defs
   id="defs62" /><sodipodi:namedview
   pagecolor="#ffffff"
   bordercolor="#666666"
   borderopacity="1"
   objecttolerance="10"
   gridtolerance="10"
   guidetolerance="10"
   inkscape:pageopacity="0"
   inkscape:pageshadow="2"
   inkscape:window-width="3840"
   inkscape:window-height="2126"
   id="namedview60"
   showgrid="false"
   inkscape:zoom="24.919738"
   inkscape:cx="27.735596"
   inkscape:cy="47.660535"
   inkscape:window-x="-11"
   inkscape:window-y="-11"
   inkscape:window-maximized="1"
   inkscape:current-layer="Ebene_1" />
<style
   type="text/css"
   id="style2">
	.st0{fill:url(#SVGID_1_);}
	.st1{fill:#E30613;}
	.st2{fill:#575656;}
	.st3{clip-path:url(#SVGID_00000078017231989865830310000002918695090960428983_);}
</style>
<linearGradient
   id="SVGID_1_"
   gradientUnits="userSpaceOnUse"
   x1="14.269"
   y1="-49.9454"
   x2="56.874"
   y2="-49.9454"
   gradientTransform="matrix(-0.5373,0.5373,-0.6605,-0.6605,24.2287,-16.605)">
	<stop
   offset="0"
   style="stop-color:#FFFFFF;stop-opacity:0"
   id="stop4" />
	<stop
   offset="1"
   style="stop-color:#E30613"
   id="stop6" />
</linearGradient>
<polygon
   class="st0"
   points="51.7,26.2 28.8,49.1 24.5,44.8 47.4,21.9 "
   id="polygon9"
   transform="matrix(1.0073025,0,0,1.0078241,-0.37753846,-0.17134759)"
   style="fill:url(#SVGID_1_);stroke-width:0.992494" />
<g
   id="g57">
	<path
   class="st1"
   d="M54.9,34c-0.5-2.9-1.6-5.5-3.2-7.8L28.8,49.1l-4.3-4.3l22.9-22.9c-3.8-2.7-8.5-4-13.5-3.2   c-10,1.6-16.8,10.9-15.2,20.9c1.6,10,10.9,16.8,20.9,15.2C49.6,53.3,56.5,44,54.9,34"
   id="path11" />
	<path
   class="st1"
   d="M62.9,10.8L47.5,15c4.8,2.4,8.8,6.3,11.2,11.1L62.9,10.8"
   id="path13" />
	<path
   class="st2"
   d="M57.1,6.1L57,6c-5.8-3.8-12.7-6-20.1-6C16.5,0,0,16.5,0,36.8c0,20.3,16.5,36.8,36.8,36.8   c20.3,0,36.8-16.4,36.8-36.7L59.9,29c0.8,2.5,1.3,5.1,1.3,7.9c0,13.5-10.9,24.4-24.4,24.4s-24.3-11-24.3-24.5   c0-11.2,7.6-20.7,17.9-23.5C30.9,13.2,57.1,6.1,57.1,6.1"
   id="path15" />
	<g
   id="g25">
		<g
   id="g23">
			<defs
   id="defs18">
				<rect
   id="SVGID_00000158736010132097568720000009999884759785717388_"
   x="24.5"
   y="17.6"
   width="31.5"
   height="31.5" />
			</defs>
			<clipPath
   id="SVGID_00000174597600738955063870000003292085230177252744_">
				<use
   xlink:href="#SVGID_00000158736010132097568720000009999884759785717388_"
   style="overflow:visible;"
   id="use20" />
			</clipPath>
		</g>
	</g>
	<g
   id="g45">
		<defs
   id="defs28">
			<path
   id="SVGID_00000049915075009347452530000015943488803477931923_"
   d="M28.8,49.1l-4.3-4.3l22.9-22.9c0,0,0,0,0,0L24.5,44.8     L28.8,49.1" />
		</defs>
		<clipPath
   id="SVGID_00000135687023072422960740000000300376149231823031_">
			<use
   xlink:href="#SVGID_00000049915075009347452530000015943488803477931923_"
   style="overflow:visible;"
   id="use30" />
		</clipPath>
		<g
   style="clip-path:url(#SVGID_00000135687023072422960740000000300376149231823031_);"
   clip-path="url(#SVGID_00000135687023072422960740000000300376149231823031_)"
   id="g43">
			<defs
   id="defs34">
				<rect
   id="SVGID_00000012470696590017436150000006693557323569176218_"
   x="23.4"
   y="21.9"
   width="24"
   height="28.3" />
			</defs>
			<clipPath
   id="SVGID_00000016769200382410075800000010295909017175826089_">
				<use
   xlink:href="#SVGID_00000012470696590017436150000006693557323569176218_"
   style="overflow:visible;"
   id="use36" />
			</clipPath>
			<g
   style="clip-path:url(#SVGID_00000016769200382410075800000010295909017175826089_);"
   clip-path="url(#SVGID_00000016769200382410075800000010295909017175826089_)"
   id="g41">
				
					<image
   xlink:href="94264C4DD21CD2C8.jpg"
   id="image39"
   transform="matrix(0.48 0 0 -0.48 22.2177 51.2512)"
   height="63"
   width="56"
   style="overflow:visible;">
				</image>
			</g>
		</g>
	</g>
	<g
   id="g55">
		<g
   id="g53">
			<defs
   id="defs48">
				<rect
   id="SVGID_00000003796352456719310190000007345746854537214378_"
   x="51.6"
   y="17.4"
   width="4.5"
   height="4.5" />
			</defs>
			<clipPath
   id="SVGID_00000049210653043377571800000003849214389855303092_">
				<use
   xlink:href="#SVGID_00000003796352456719310190000007345746854537214378_"
   style="overflow:visible;"
   id="use50" />
			</clipPath>
		</g>
	</g>
</g>
</svg>
